<?xml version="1.0" encoding="utf-8"?>
<!-- Generator: Adobe Illustrator 17.0.0, SVG Export Plug-In . SVG Version: 6.00 Build 0)  -->
<!DOCTYPE svg PUBLIC "-//W3C//DTD SVG 1.1//EN" "http://www.w3.org/Graphics/SVG/1.1/DTD/svg11.dtd">
<svg version="1.1" id="Layer_1" xmlns="http://www.w3.org/2000/svg" xmlns:xlink="http://www.w3.org/1999/xlink" x="0px" y="0px"
	 width="50px" height="50px" viewBox="0 0 50 50" enable-background="new 0 0 50 50" xml:space="preserve">
<g>
	<g>
		<path fill="#F1F1F1" d="M49.276,20.24l-4.459-0.413c-0.476-1.824-1.203-3.568-2.166-5.2l2.861-3.446
			c0.263-0.317,0.242-0.782-0.05-1.074l-5.589-5.589c-0.292-0.291-0.757-0.313-1.074-0.05l-3.451,2.866
			c-1.633-0.96-3.378-1.684-5.203-2.158l-0.413-4.452C29.694,0.314,29.35,0,28.938,0h-7.904c-0.412,0-0.756,0.314-0.794,0.724
			l-0.413,4.459c-1.824,0.476-3.568,1.203-5.2,2.166l-3.446-2.861c-0.317-0.263-0.782-0.242-1.074,0.05l-5.589,5.589
			c-0.291,0.291-0.313,0.757-0.05,1.074l2.866,3.451c-0.96,1.633-1.684,3.378-2.158,5.203l-4.452,0.413
			C0.314,20.306,0,20.65,0,21.062v7.876c0,0.412,0.314,0.756,0.724,0.794l4.452,0.413c0.474,1.825,1.198,3.57,2.158,5.203
			L4.469,38.8c-0.263,0.317-0.242,0.782,0.05,1.074l5.589,5.589c0.292,0.292,0.757,0.313,1.074,0.05l3.446-2.861
			c1.632,0.963,3.376,1.69,5.2,2.166l0.413,4.459C20.278,49.686,20.622,50,21.034,50h7.904c0.412,0,0.756-0.314,0.794-0.724
			l0.413-4.452c1.825-0.474,3.57-1.198,5.203-2.158l3.451,2.866c0.317,0.263,0.782,0.242,1.074-0.05l5.589-5.589
			c0.291-0.291,0.313-0.757,0.05-1.074l-2.861-3.446c0.963-1.632,1.69-3.376,2.166-5.2l4.459-0.413
			C49.686,29.722,50,29.378,50,28.966v-7.931C50,20.622,49.686,20.278,49.276,20.24z M48.404,28.238l-4.3,0.399
			c-0.343,0.032-0.626,0.28-0.704,0.615c-0.472,2.042-1.28,3.983-2.403,5.768c-0.184,0.292-0.159,0.669,0.062,0.934l2.761,3.325
			l-4.56,4.56l-3.33-2.765c-0.265-0.22-0.641-0.245-0.933-0.062c-1.787,1.12-3.729,1.925-5.772,2.394
			c-0.336,0.077-0.584,0.361-0.616,0.704l-0.398,4.294h-6.449l-0.399-4.3c-0.032-0.343-0.28-0.626-0.615-0.704
			c-2.042-0.472-3.982-1.28-5.768-2.403c-0.292-0.183-0.669-0.159-0.934,0.062l-3.325,2.76l-4.56-4.56l2.765-3.329
			c0.22-0.265,0.245-0.642,0.062-0.933c-1.12-1.787-1.925-3.729-2.394-5.772c-0.077-0.336-0.361-0.584-0.704-0.616l-4.294-0.398
			V21.79l4.294-0.398c0.343-0.032,0.627-0.28,0.704-0.616c0.469-2.043,1.274-3.985,2.394-5.772c0.183-0.292,0.158-0.668-0.062-0.933
			l-2.765-3.329l4.56-4.56l3.325,2.76c0.265,0.22,0.642,0.245,0.934,0.062c1.786-1.123,3.726-1.931,5.768-2.403
			c0.335-0.077,0.583-0.361,0.615-0.704l0.399-4.3h6.449l0.398,4.294c0.032,0.343,0.28,0.627,0.616,0.704
			c2.043,0.469,3.985,1.274,5.772,2.394c0.292,0.183,0.668,0.158,0.933-0.062l3.33-2.765l4.56,4.56l-2.761,3.325
			c-0.22,0.265-0.245,0.642-0.062,0.934c1.123,1.786,1.931,3.727,2.403,5.768c0.077,0.335,0.361,0.583,0.704,0.615l4.3,0.399
			L48.404,28.238L48.404,28.238z"/>
	</g>
</g>
<g>
	<g>
		<path fill="#F1F1F1" d="M25,7.713C15.468,7.713,7.713,15.468,7.713,25c0,3.995,1.4,7.894,3.943,10.979
			c0.28,0.34,0.783,0.389,1.123,0.108c0.34-0.28,0.388-0.783,0.108-1.123c-2.308-2.8-3.579-6.339-3.579-9.964
			c0-8.652,7.039-15.691,15.691-15.691S40.691,16.348,40.691,25S33.652,40.691,25,40.691c-3.625,0-7.164-1.271-9.964-3.579
			c-0.34-0.28-0.843-0.232-1.123,0.108c-0.28,0.34-0.232,0.843,0.108,1.123c3.085,2.543,6.984,3.943,10.979,3.943
			c9.532,0,17.287-7.755,17.287-17.287S34.532,7.713,25,7.713z"/>
	</g>
</g>
<g>
	<g>
		<path fill="#F1F1F1" d="M25,10.904c-7.772,0-14.096,6.323-14.096,14.096S17.228,39.096,25,39.096S39.096,32.772,39.096,25
			C39.096,17.228,32.772,10.904,25,10.904z M36.617,20.386l-5.079,1.65c-0.719-1.581-1.994-2.856-3.575-3.575l1.65-5.079
			C32.801,14.653,35.347,17.199,36.617,20.386z M30.585,25c0,3.08-2.506,5.585-5.585,5.585c-3.08,0-5.585-2.505-5.585-5.585
			c0-3.08,2.505-5.585,5.585-5.585S30.585,21.92,30.585,25z M25,12.5c1.068,0,2.106,0.135,3.096,0.388l-1.65,5.077
			c-0.467-0.096-0.951-0.146-1.447-0.146s-0.979,0.05-1.447,0.146l-1.65-5.077C22.894,12.635,23.931,12.5,25,12.5z M20.386,13.383
			l1.65,5.079c-1.581,0.719-2.856,1.994-3.575,3.575l-5.079-1.65C14.653,17.199,17.199,14.653,20.386,13.383z M12.5,25
			c0-1.068,0.135-2.106,0.388-3.096l5.077,1.65c-0.096,0.467-0.146,0.951-0.146,1.447s0.05,0.979,0.146,1.447l-5.077,1.65
			C12.635,27.106,12.5,26.069,12.5,25z M13.383,29.614l5.079-1.65c0.719,1.581,1.994,2.856,3.575,3.575l-1.65,5.079
			C17.199,35.347,14.653,32.801,13.383,29.614z M25,37.5c-1.068,0-2.106-0.135-3.096-0.388l1.65-5.077
			c0.467,0.096,0.951,0.146,1.447,0.146s0.979-0.05,1.447-0.146l1.65,5.077C27.106,37.365,26.068,37.5,25,37.5z M29.614,36.617
			l-1.65-5.079c1.581-0.719,2.856-1.994,3.575-3.575l5.079,1.65C35.347,32.801,32.801,35.347,29.614,36.617z M32.034,26.447
			c0.096-0.467,0.146-0.951,0.146-1.447s-0.05-0.979-0.146-1.447l5.077-1.65C37.365,22.894,37.5,23.932,37.5,25
			s-0.135,2.106-0.388,3.096L32.034,26.447z"/>
	</g>
</g>
</svg>
