<?xml version="1.0" encoding="utf-8"?>
<!-- Generator: Adobe Illustrator 17.0.0, SVG Export Plug-In . SVG Version: 6.00 Build 0)  -->
<!DOCTYPE svg PUBLIC "-//W3C//DTD SVG 1.1//EN" "http://www.w3.org/Graphics/SVG/1.1/DTD/svg11.dtd">
<svg version="1.1" id="Capa_1" xmlns="http://www.w3.org/2000/svg" xmlns:xlink="http://www.w3.org/1999/xlink" x="0px" y="0px"
	 width="50px" height="50px" viewBox="0 0 50 50" enable-background="new 0 0 50 50" xml:space="preserve">
<g>
	<g>
		<path fill="#F1F1F1" d="M49.714,19.956c-0.183-0.183-0.432-0.286-0.691-0.286H46.58c-0.539,0-0.976,0.437-0.976,0.976
			s0.437,0.976,0.976,0.976h1.467l-0.004,6.779h-2.815c-0.46,0-0.858,0.321-0.955,0.771c-0.5,2.327-1.409,4.521-2.703,6.524
			c-0.25,0.387-0.196,0.895,0.13,1.221l1.985,1.985l-4.796,4.792l-1.983-1.983c-0.325-0.326-0.834-0.379-1.221-0.13
			c-2.002,1.294-4.197,2.203-6.524,2.703c-0.45,0.097-0.771,0.494-0.771,0.955v2.805H21.61V45.24c0-0.46-0.321-0.858-0.771-0.955
			c-2.327-0.5-4.521-1.409-6.524-2.703c-0.387-0.25-0.895-0.196-1.221,0.13l-1.983,1.983l-4.796-4.792l1.985-1.985
			c0.325-0.325,0.379-0.834,0.13-1.221c-1.294-2.002-2.204-4.197-2.703-6.524c-0.097-0.45-0.494-0.771-0.955-0.771h-2.82v-6.779
			H3.42c0.539,0,0.976-0.437,0.976-0.976c0-0.539-0.437-0.976-0.976-0.976H0.976C0.437,19.67,0,20.107,0,20.646v8.732
			c0,0.539,0.437,0.976,0.976,0.976h3.022c0.511,2.018,1.307,3.939,2.374,5.729l-2.129,2.129c-0.183,0.183-0.286,0.432-0.286,0.691
			c0,0.259,0.103,0.507,0.286,0.691l6.177,6.172c0.381,0.381,0.999,0.381,1.381,0l2.126-2.126c1.79,1.067,3.711,1.863,5.729,2.374
			v3.007c0,0.539,0.437,0.976,0.976,0.976h8.732c0.539,0,0.976-0.437,0.976-0.976v-3.007c2.018-0.511,3.939-1.307,5.729-2.374
			l2.126,2.126c0.381,0.381,0.999,0.381,1.381,0l6.177-6.172c0.183-0.183,0.286-0.432,0.286-0.691c0-0.259-0.103-0.507-0.286-0.691
			l-2.129-2.128c1.067-1.79,1.863-3.711,2.374-5.729h3.017c0.539,0,0.976-0.437,0.976-0.976L50,20.647
			C50,20.388,49.897,20.139,49.714,19.956z"/>
	</g>
</g>
<g>
	<g>
		<path fill="#F1F1F1" d="M23.737,7.865c-0.182-0.182-0.434-0.286-0.69-0.286c-0.257,0-0.509,0.104-0.69,0.286
			c-0.182,0.182-0.286,0.434-0.286,0.69c0,0.258,0.104,0.51,0.286,0.69c0.182,0.183,0.434,0.287,0.69,0.287
			c0.257,0,0.509-0.104,0.69-0.287c0.182-0.182,0.286-0.433,0.286-0.69C24.024,8.299,23.919,8.048,23.737,7.865z"/>
	</g>
</g>
<g>
	<g>
		<path fill="#F1F1F1" d="M23.047,11.059c-0.539,0-0.976,0.437-0.976,0.976v16.345c0,1.734-1.411,3.146-3.146,3.146
			c-1.2,0-2.292-0.685-2.819-1.755c1.728-0.814,2.985-2.467,3.246-4.43c1.163-0.388,2.005-1.487,2.005-2.779
			c0-1.615-1.314-2.929-2.929-2.929c-1.615,0-2.929,1.314-2.929,2.929c0,1.247,0.784,2.314,1.884,2.736
			c-0.335,1.743-1.871,3.065-3.711,3.065c-2.084,0-3.78-1.696-3.78-3.78c0-0.772,0.227-1.503,0.658-2.131
			c0.783-0.195,1.506-0.609,2.067-1.201c0.371-0.391,0.354-1.009-0.037-1.38s-1.009-0.355-1.38,0.037
			c-0.439,0.463-1.032,0.718-1.67,0.718c-1.269,0-2.301-1.032-2.301-2.301v-5.307c0-1.269,1.032-2.301,2.301-2.301
			c1.005,0,1.861,0.648,2.173,1.547c-1.07,0.437-1.826,1.488-1.826,2.713c0,1.615,1.314,2.929,2.929,2.929s2.929-1.314,2.929-2.929
			c0-1.303-0.856-2.41-2.035-2.789c-0.263-1.324-1.142-2.429-2.324-3.001c-0.298-0.384-0.462-0.855-0.462-1.346
			c0-1.212,0.986-2.199,2.199-2.199c0.273,0,0.541,0.05,0.791,0.147c0.078,0.669,0.33,1.3,0.734,1.837
			c-0.098,0.292-0.152,0.604-0.152,0.929c0,1.615,1.314,2.929,2.929,2.929s2.929-1.314,2.929-2.929s-1.314-2.929-2.929-2.929
			c-0.531,0-1.029,0.143-1.459,0.391c-0.083-0.212-0.127-0.438-0.127-0.672v-0.27c0-1.72,1.4-3.12,3.12-3.12
			c1.72,0,3.12,1.4,3.12,3.12c0,0.539,0.437,0.976,0.976,0.976c0.539,0,0.977-0.437,0.977-0.976c0-2.797-2.276-5.073-5.073-5.073
			c-2.355,0-4.34,1.613-4.909,3.792c-0.303-0.069-0.614-0.105-0.929-0.105c-2.289,0-4.151,1.862-4.151,4.151
			c0,0.322,0.037,0.64,0.109,0.949c-2.131,0.229-3.796,2.038-3.796,4.229v5.307c0,1.942,1.309,3.583,3.09,4.09
			c-0.279,0.684-0.427,1.422-0.427,2.168c0,3.161,2.572,5.733,5.733,5.733c0.177,0,0.351-0.009,0.524-0.025l0.068,0.153
			c0.816,1.844,2.646,3.035,4.662,3.035c2.811,0,5.098-2.287,5.098-5.098V12.036C24.024,11.497,23.586,11.059,23.047,11.059z
			 M18.427,21.586c0.538,0,0.976,0.438,0.976,0.976c0,0.538-0.438,0.976-0.976,0.976c-0.538,0-0.976-0.438-0.976-0.976
			C17.451,22.024,17.889,21.586,18.427,21.586z M12.806,14.001c0.538,0,0.976,0.438,0.976,0.976s-0.438,0.976-0.976,0.976
			s-0.976-0.438-0.976-0.976C11.83,14.439,12.268,14.001,12.806,14.001z M17.416,7.579c0.538,0,0.976,0.438,0.976,0.976
			c0,0.538-0.438,0.976-0.976,0.976c-0.538,0-0.976-0.438-0.976-0.976C16.44,8.017,16.878,7.579,17.416,7.579z"/>
	</g>
</g>
<g>
	<g>
		<path fill="#F1F1F1" d="M40.929,8.789c0.072-0.308,0.109-0.626,0.109-0.949c0-2.289-1.862-4.151-4.151-4.151
			c-0.315,0-0.626,0.036-0.929,0.105c-0.569-2.179-2.554-3.792-4.909-3.792c-2.797,0-5.073,2.276-5.073,5.073v12.549
			c0,0.539,0.437,0.976,0.976,0.976c0.539,0,0.976-0.437,0.976-0.976V5.075c0-1.72,1.4-3.12,3.12-3.12c1.72,0,3.12,1.4,3.12,3.12
			v0.27c0,0.254-0.053,0.502-0.152,0.731c-0.452-0.285-0.985-0.45-1.557-0.45c-1.615,0-2.929,1.314-2.929,2.929
			s1.314,2.929,2.929,2.929c1.615,0,2.929-1.314,2.929-2.929c0-0.283-0.041-0.557-0.117-0.816c0.452-0.558,0.738-1.236,0.822-1.95
			c0.251-0.097,0.518-0.147,0.792-0.147c1.212,0,2.199,0.986,2.199,2.199c0,0.491-0.163,0.962-0.462,1.346
			c-1.183,0.573-2.061,1.677-2.324,3.001c-1.179,0.379-2.035,1.486-2.035,2.789c0,1.615,1.314,2.929,2.929,2.929
			c1.615,0,2.929-1.314,2.929-2.929c0-1.225-0.756-2.276-1.826-2.713c0.313-0.9,1.169-1.547,2.173-1.547
			c1.269,0,2.301,1.032,2.301,2.301v5.307c0,1.269-1.032,2.301-2.301,2.301c-0.638,0-1.231-0.255-1.67-0.718
			c-0.371-0.391-0.989-0.408-1.38-0.037c-0.391,0.371-0.408,0.989-0.037,1.38c0.562,0.593,1.285,1.007,2.068,1.201
			c0.431,0.628,0.658,1.359,0.658,2.131c0,2.084-1.696,3.78-3.78,3.78c-1.84,0-3.376-1.321-3.711-3.065
			c1.1-0.422,1.884-1.489,1.884-2.736c0-1.615-1.314-2.929-2.929-2.929s-2.929,1.314-2.929,2.929c0,1.292,0.841,2.391,2.005,2.779
			c0.261,1.963,1.518,3.616,3.246,4.43c-0.528,1.07-1.619,1.755-2.819,1.755c-1.734,0-3.146-1.411-3.146-3.146v-3.299
			c0-0.539-0.437-0.976-0.976-0.976s-0.976,0.437-0.976,0.976v3.299c0,2.811,2.287,5.098,5.098,5.098
			c2.016,0,3.846-1.192,4.662-3.035l0.068-0.153c0.173,0.016,0.347,0.025,0.524,0.025c3.161,0,5.733-2.572,5.733-5.733
			c0-0.746-0.148-1.483-0.427-2.168c1.781-0.508,3.09-2.149,3.09-4.091v-5.307C44.725,10.827,43.06,9.018,40.929,8.789z
			 M32.46,9.532c-0.538,0-0.976-0.438-0.976-0.976c0-0.538,0.438-0.976,0.976-0.976c0.538,0,0.976,0.438,0.976,0.976
			C33.437,9.094,32.998,9.532,32.46,9.532z M37.194,15.954c-0.538,0-0.976-0.438-0.976-0.976c0-0.538,0.438-0.976,0.976-0.976
			c0.538,0,0.976,0.438,0.976,0.976C38.17,15.516,37.732,15.954,37.194,15.954z M31.573,23.539c-0.538,0-0.976-0.438-0.976-0.976
			c0-0.538,0.438-0.976,0.976-0.976s0.976,0.438,0.976,0.976C32.549,23.101,32.111,23.539,31.573,23.539z"/>
	</g>
</g>
<g>
	<g>
		<path fill="#F1F1F1" d="M27.643,20.912c-0.182-0.182-0.434-0.286-0.69-0.286s-0.509,0.104-0.69,0.286s-0.286,0.434-0.286,0.69
			c0,0.257,0.104,0.509,0.286,0.69s0.434,0.286,0.69,0.286s0.509-0.104,0.69-0.286c0.182-0.182,0.286-0.434,0.286-0.69
			C27.929,21.345,27.825,21.093,27.643,20.912z"/>
	</g>
</g>
<g>
	<g>
		<path fill="#F1F1F1" d="M36.738,35.357c-0.381-0.381-1-0.381-1.381,0c-5.711,5.711-15.003,5.711-20.714,0
			c-0.381-0.381-0.999-0.381-1.381,0c-0.381,0.381-0.381,1,0,1.381c3.237,3.237,7.486,4.854,11.738,4.854
			c4.25,0,8.502-1.618,11.738-4.854C37.119,36.357,37.119,35.738,36.738,35.357z"/>
	</g>
</g>
<g>
	<g>
		<path fill="#F1F1F1" d="M49.021,2.706h-0.67c-0.539,0-0.976,0.437-0.976,0.976s0.437,0.976,0.976,0.976h0.67
			c0.539,0,0.976-0.437,0.976-0.976S49.56,2.706,49.021,2.706z"/>
	</g>
</g>
<g>
	<g>
		<path fill="#F1F1F1" d="M44.283,2.706h-0.67c-0.539,0-0.976,0.437-0.976,0.976s0.437,0.976,0.976,0.976h0.67
			c0.539,0,0.976-0.437,0.976-0.976S44.823,2.706,44.283,2.706z"/>
	</g>
</g>
<g>
	<g>
		<path fill="#F1F1F1" d="M46.317,4.74c-0.539,0-0.976,0.437-0.976,0.976v0.67c0,0.539,0.437,0.976,0.976,0.976
			c0.539,0,0.976-0.437,0.976-0.976v-0.67C47.294,5.178,46.857,4.74,46.317,4.74z"/>
	</g>
</g>
<g>
	<g>
		<path fill="#F1F1F1" d="M46.317,0.002c-0.539,0-0.976,0.437-0.976,0.976v0.67c0,0.539,0.437,0.976,0.976,0.976
			c0.539,0,0.976-0.437,0.976-0.976v-0.67C47.294,0.44,46.857,0.002,46.317,0.002z"/>
	</g>
</g>
<g>
	<g>
		<path fill="#F1F1F1" d="M6.387,45.341h-0.67c-0.539,0-0.976,0.437-0.976,0.976c0,0.539,0.437,0.976,0.976,0.976h0.67
			c0.539,0,0.976-0.437,0.976-0.976C7.363,45.778,6.926,45.341,6.387,45.341z"/>
	</g>
</g>
<g>
	<g>
		<path fill="#F1F1F1" d="M1.649,45.341h-0.67c-0.539,0-0.976,0.437-0.976,0.976c0,0.539,0.437,0.976,0.976,0.976h0.67
			c0.539,0,0.976-0.437,0.976-0.976C2.625,45.778,2.188,45.341,1.649,45.341z"/>
	</g>
</g>
<g>
	<g>
		<path fill="#F1F1F1" d="M3.683,47.375c-0.539,0-0.976,0.437-0.976,0.976v0.67c0,0.539,0.437,0.976,0.976,0.976
			s0.976-0.437,0.976-0.976v-0.67C4.659,47.812,4.222,47.375,3.683,47.375z"/>
	</g>
</g>
<g>
	<g>
		<path fill="#F1F1F1" d="M3.683,42.637c-0.539,0-0.976,0.437-0.976,0.976v0.67c0,0.539,0.437,0.976,0.976,0.976
			s0.976-0.437,0.976-0.976v-0.67C4.659,43.074,4.222,42.637,3.683,42.637z"/>
	</g>
</g>
</svg>
