<?xml version="1.0" encoding="utf-8"?>
<!-- Generator: Adobe Illustrator 17.0.0, SVG Export Plug-In . SVG Version: 6.00 Build 0)  -->
<!DOCTYPE svg PUBLIC "-//W3C//DTD SVG 1.1//EN" "http://www.w3.org/Graphics/SVG/1.1/DTD/svg11.dtd">
<svg version="1.1" id="Capa_1" xmlns="http://www.w3.org/2000/svg" xmlns:xlink="http://www.w3.org/1999/xlink" x="0px" y="0px"
	 width="50px" height="50px" viewBox="0 0 50 50" enable-background="new 0 0 50 50" xml:space="preserve">
<g>
	<path fill="#F1F1F1" d="M28.95,30.442l7.802-10.787c0.239-0.331,0.203-0.788-0.087-1.077c-0.29-0.288-0.747-0.325-1.077-0.087
		L24.8,26.296c-0.703,0.512-1.146,1.302-1.213,2.17s0.247,1.717,0.861,2.331c0.561,0.561,1.306,0.87,2.097,0.87
		C27.493,31.667,28.392,31.209,28.95,30.442z"/>
	<path fill="#F1F1F1" d="M45.445,16.303c-0.008-0.017-0.008-0.036-0.018-0.053c-0.01-0.017-0.026-0.026-0.037-0.042
		c-0.843-1.445-1.839-2.789-2.971-4.008l1.789-1.789l1.178,1.178l3.535-3.535l-3.535-3.536L41.85,8.054l1.179,1.178l-1.789,1.789
		c-1.218-1.132-2.562-2.129-4.007-2.972c-0.016-0.011-0.025-0.027-0.042-0.037c-0.017-0.01-0.036-0.009-0.053-0.018
		c-2.577-1.485-5.473-2.474-8.56-2.837v-0.99h1.25c1.149,0,2.083-0.934,2.083-2.083S30.977,0,29.827,0h-7.5
		c-1.149,0-2.083,0.934-2.083,2.083s0.934,2.083,2.083,2.083h1.25V5.13c-0.9,0.096-1.798,0.242-2.687,0.446
		c-0.448,0.102-0.729,0.55-0.626,0.998s0.55,0.728,0.998,0.626c0.788-0.181,1.585-0.315,2.383-0.404l0.826-0.062
		C24.75,6.713,25,6.698,25.242,6.686l0,0v1.647c0,0.461,0.373,0.833,0.833,0.833s0.833-0.372,0.833-0.833V6.692
		c3.134,0.144,6.087,0.986,8.713,2.371l-0.822,1.423c-0.23,0.399-0.093,0.908,0.305,1.138c0.131,0.076,0.274,0.112,0.416,0.112
		c0.288,0,0.568-0.15,0.722-0.417l0.819-1.42c2.608,1.654,4.822,3.869,6.477,6.477l-1.419,0.819
		c-0.397,0.23-0.533,0.739-0.303,1.138c0.155,0.267,0.434,0.417,0.722,0.417c0.142,0,0.285-0.036,0.416-0.112l1.423-0.822
		c1.404,2.663,2.248,5.665,2.374,8.849h-1.646c-0.461,0-0.833,0.372-0.833,0.833s0.372,0.833,0.833,0.833h1.646
		c-0.126,3.184-0.97,6.186-2.374,8.849l-1.423-0.822c-0.398-0.231-0.908-0.095-1.138,0.305c-0.23,0.399-0.093,0.908,0.305,1.138
		l1.419,0.819c-1.654,2.608-3.869,4.822-6.477,6.477l-0.819-1.419c-0.231-0.4-0.742-0.537-1.138-0.305
		c-0.399,0.23-0.536,0.74-0.305,1.138l0.822,1.423c-2.626,1.385-5.579,2.227-8.713,2.371v-1.64c0-0.461-0.372-0.833-0.833-0.833
		s-0.833,0.372-0.833,0.833v1.647c-1.331-0.046-2.666-0.213-3.98-0.514c-0.448-0.104-0.896,0.178-0.998,0.626
		c-0.103,0.448,0.177,0.896,0.626,0.998C22.557,49.807,24.256,50,25.942,50c0.041,0,0.08-0.002,0.121-0.003
		c0.006,0,0.01,0.003,0.015,0.003c0.007,0,0.012-0.004,0.019-0.004c4.006-0.028,7.764-1.109,11.016-2.978
		c0.026-0.012,0.053-0.017,0.078-0.033c0.017-0.01,0.026-0.026,0.042-0.037c3.366-1.962,6.178-4.771,8.144-8.134
		c0.016-0.022,0.036-0.04,0.05-0.065c0.01-0.018,0.009-0.036,0.018-0.053c1.903-3.3,2.997-7.122,2.997-11.197
		S47.347,19.603,45.445,16.303z"/>
	<path fill="#F1F1F1" d="M18.577,10.833H14.41c-0.92,0-1.667,0.747-1.667,1.667s0.747,1.667,1.667,1.667h4.167
		c0.92,0,1.667-0.747,1.667-1.667S19.497,10.833,18.577,10.833z"/>
	<path fill="#F1F1F1" d="M18.577,16.667h-8.333c-0.92,0-1.667,0.747-1.667,1.667S9.324,20,10.244,20h8.333
		c0.92,0,1.667-0.747,1.667-1.667S19.497,16.667,18.577,16.667z"/>
	<path fill="#F1F1F1" d="M18.577,22.5h-12.5c-0.92,0-1.667,0.747-1.667,1.667s0.747,1.667,1.667,1.667h12.5
		c0.92,0,1.667-0.747,1.667-1.667S19.497,22.5,18.577,22.5z"/>
	<path fill="#F1F1F1" d="M18.577,28.333H2.744c-0.92,0-1.667,0.747-1.667,1.667s0.747,1.667,1.667,1.667h15.833
		c0.92,0,1.667-0.747,1.667-1.667S19.497,28.333,18.577,28.333z"/>
	<path fill="#F1F1F1" d="M18.577,34.167H7.744c-0.92,0-1.667,0.747-1.667,1.667s0.747,1.667,1.667,1.667h10.833
		c0.92,0,1.667-0.747,1.667-1.667C20.244,34.913,19.497,34.167,18.577,34.167z"/>
	<path fill="#F1F1F1" d="M18.577,40h-5.833c-0.92,0-1.667,0.747-1.667,1.667s0.747,1.667,1.667,1.667h5.833
		c0.92,0,1.667-0.747,1.667-1.667S19.497,40,18.577,40z"/>
</g>
</svg>
